<svg id="Capa_1" data-name="Capa 1" xmlns="http://www.w3.org/2000/svg" viewBox="0 0 1000 158.924"><title>Sin título-2</title><rect width="1000" height="158.924" fill="#fff"/><path d="M680.011,94.878h-.5a.307.307,0,0,0-.221.093l-2,2.028a.271.271,0,0,1-.384,0l-1.989-2a.3.3,0,0,0-.213-.089H674.2a.3.3,0,0,0-.3.3v4.7a.246.246,0,0,0,.246.246h.445a.246.246,0,0,0,.246-.246V96.2l2.066,2.079a.27.27,0,0,0,.38,0l2.107-2.043v3.671a.246.246,0,0,0,.246.246h.445a.246.246,0,0,0,.246-.246v-4.72A.311.311,0,0,0,680.011,94.878Z" transform="translate(-0.201 0.388)" fill="#1e1e1c"/><path d="M683.619,95a.22.22,0,0,0-.39,0l-2.407,4.726a.294.294,0,0,0,.262.427h4.763a.294.294,0,0,0,.26-.43Zm.912,4.239h-2.192a.087.087,0,0,1-.077-.126l1.09-2.154a.1.1,0,0,1,.17,0l1.1,2.127A.105.105,0,0,1,684.531,99.243Z" transform="translate(-0.201 0.388)" fill="#1e1e1c"/><path d="M689.281,94.887a2.654,2.654,0,1,0,2.632,2.653A2.645,2.645,0,0,0,689.281,94.887Zm0,4.422a1.769,1.769,0,1,1,1.747-1.769A1.76,1.76,0,0,1,689.281,99.309Z" transform="translate(-0.201 0.388)" fill="#1e1e1c"/><path d="M451.784,79.934A14.164,14.164,0,1,0,465.947,94.1a14.179,14.179,0,0,0-14.163-14.164Zm0,28.947A14.784,14.784,0,1,1,466.567,94.1a14.8,14.8,0,0,1-14.783,14.783Z" transform="translate(-0.201 0.388)" fill="#1e1e1c"/><path d="M451.784,79.934A14.164,14.164,0,1,0,465.947,94.1a14.179,14.179,0,0,0-14.163-14.164Zm0,28.947A14.784,14.784,0,1,1,466.567,94.1a14.8,14.8,0,0,1-14.783,14.783Z" transform="translate(-0.201 0.388)" fill="#1e1e1c"/><path d="M451.784,83.842A10.256,10.256,0,1,0,462.04,94.1a10.267,10.267,0,0,0-10.256-10.256Zm0,21.132A10.876,10.876,0,1,1,462.66,94.1a10.888,10.888,0,0,1-10.876,10.876Z" transform="translate(-0.201 0.388)" fill="#1e1e1c"/><path d="M451.784,85.636a8.462,8.462,0,1,0,8.462,8.462,8.472,8.472,0,0,0-8.462-8.462Zm0,17.543a9.082,9.082,0,1,1,9.082-9.081,9.092,9.092,0,0,1-9.082,9.081Z" transform="translate(-0.201 0.388)" fill="#1e1e1c"/><path d="M451.784,91.034a3.064,3.064,0,1,0,3.064,3.064,3.067,3.067,0,0,0-3.064-3.064Zm0,6.748a3.684,3.684,0,1,1,3.684-3.684,3.688,3.688,0,0,1-3.684,3.684Z" transform="translate(-0.201 0.388)" fill="#1e1e1c"/><path d="M451.784,92.639a1.459,1.459,0,1,0,1.46,1.459,1.461,1.461,0,0,0-1.46-1.459Zm0,3.538a2.079,2.079,0,1,1,2.079-2.079,2.081,2.081,0,0,1-2.079,2.079Z" transform="translate(-0.201 0.388)" fill="#1e1e1c"/><polygon points="453.607 103.028 452.183 97.819 452.782 97.656 454.206 102.865 453.607 103.028 453.607 103.028" fill="#1e1e1c"/><polygon points="450.413 91.342 448.979 86.102 449.578 85.939 451.01 91.179 450.413 91.342 450.413 91.342" fill="#1e1e1c"/><polygon points="452.885 91.26 452.265 91.26 452.265 85.714 452.885 85.714 452.885 91.26 452.885 91.26" fill="#1e1e1c"/><polygon points="450.768 103.211 450.148 103.211 450.148 97.665 450.768 97.665 450.768 103.211 450.768 103.211" fill="#1e1e1c"/><polygon points="443.191 97.076 443.027 96.478 448.235 95.054 448.399 95.652 443.191 97.076 443.191 97.076" fill="#1e1e1c"/><polygon points="454.877 93.88 454.714 93.282 459.954 91.85 460.118 92.448 454.877 93.88 454.877 93.88" fill="#1e1e1c"/><polygon points="460.342 95.755 454.796 95.755 454.796 95.135 460.342 95.135 460.342 95.755 460.342 95.755" fill="#1e1e1c"/><polygon points="448.39 93.637 442.844 93.637 442.844 93.017 448.39 93.017 448.39 93.637 448.39 93.637" fill="#1e1e1c"/><polygon points="447.499 102.251 446.961 101.944 449.637 97.254 450.175 97.561 447.499 102.251 447.499 102.251" fill="#1e1e1c"/><polygon points="453.503 91.729 452.965 91.421 455.656 86.703 456.196 87.011 453.503 91.729 453.503 91.729" fill="#1e1e1c"/><polygon points="454.771 93.112 454.333 92.673 458.254 88.752 458.693 89.19 454.771 93.112 454.771 93.112" fill="#1e1e1c"/><polygon points="444.823 100.065 444.385 99.627 448.307 95.705 448.745 96.143 444.823 100.065 444.823 100.065" fill="#1e1e1c"/><polygon points="448.495 93.045 443.804 90.369 444.112 89.831 448.802 92.507 448.495 93.045 448.495 93.045" fill="#1e1e1c"/><polygon points="459.045 99.065 454.327 96.373 454.635 95.835 459.352 98.527 459.045 99.065 459.045 99.065" fill="#1e1e1c"/><polygon points="456.866 101.563 452.944 97.641 453.382 97.203 457.303 101.124 456.866 101.563 456.866 101.563" fill="#1e1e1c"/><polygon points="449.911 91.615 445.991 87.693 446.429 87.254 450.351 91.176 449.911 91.615 449.911 91.615" fill="#1e1e1c"/><path d="M565.249,79.934A14.164,14.164,0,1,0,579.412,94.1a14.178,14.178,0,0,0-14.163-14.164Zm0,28.947A14.784,14.784,0,1,1,580.032,94.1a14.8,14.8,0,0,1-14.783,14.783Z" transform="translate(-0.201 0.388)" fill="#1e1e1c"/><path d="M565.249,79.934A14.164,14.164,0,1,0,579.412,94.1a14.178,14.178,0,0,0-14.163-14.164Zm0,28.947A14.784,14.784,0,1,1,580.032,94.1a14.8,14.8,0,0,1-14.783,14.783Z" transform="translate(-0.201 0.388)" fill="#1e1e1c"/><path d="M565.249,83.842A10.256,10.256,0,1,0,575.506,94.1a10.267,10.267,0,0,0-10.257-10.256Zm0,21.132A10.876,10.876,0,1,1,576.125,94.1a10.889,10.889,0,0,1-10.876,10.876Z" transform="translate(-0.201 0.388)" fill="#1e1e1c"/><path d="M565.249,85.636a8.462,8.462,0,1,0,8.462,8.462,8.472,8.472,0,0,0-8.462-8.462Zm0,17.543a9.082,9.082,0,1,1,9.082-9.081,9.091,9.091,0,0,1-9.082,9.081Z" transform="translate(-0.201 0.388)" fill="#1e1e1c"/><path d="M565.249,91.034a3.064,3.064,0,1,0,3.065,3.064,3.067,3.067,0,0,0-3.065-3.064Zm0,6.748a3.684,3.684,0,1,1,3.684-3.684,3.687,3.687,0,0,1-3.684,3.684Z" transform="translate(-0.201 0.388)" fill="#1e1e1c"/><path d="M565.249,92.639a1.459,1.459,0,1,0,1.46,1.459,1.461,1.461,0,0,0-1.46-1.459Zm0,3.538a2.079,2.079,0,1,1,2.08-2.079,2.081,2.081,0,0,1-2.08,2.079Z" transform="translate(-0.201 0.388)" fill="#1e1e1c"/><polygon points="567.073 103.028 565.648 97.819 566.247 97.656 567.671 102.865 567.073 103.028 567.073 103.028" fill="#1e1e1c"/><polygon points="563.878 91.342 562.445 86.102 563.043 85.939 564.475 91.179 563.878 91.342 563.878 91.342" fill="#1e1e1c"/><polygon points="566.35 91.26 565.73 91.26 565.73 85.714 566.35 85.714 566.35 91.26 566.35 91.26" fill="#1e1e1c"/><polygon points="564.233 103.211 563.613 103.211 563.613 97.665 564.233 97.665 564.233 103.211 564.233 103.211" fill="#1e1e1c"/><polygon points="556.656 97.076 556.492 96.478 561.702 95.054 561.864 95.652 556.656 97.076 556.656 97.076" fill="#1e1e1c"/><polygon points="568.343 93.88 568.179 93.282 573.419 91.85 573.583 92.448 568.343 93.88 568.343 93.88" fill="#1e1e1c"/><polygon points="573.807 95.755 568.261 95.755 568.261 95.135 573.807 95.135 573.807 95.755 573.807 95.755" fill="#1e1e1c"/><polygon points="561.855 93.637 556.309 93.637 556.309 93.017 561.855 93.017 561.855 93.637 561.855 93.637" fill="#1e1e1c"/><polygon points="560.964 102.251 560.426 101.944 563.102 97.254 563.64 97.561 560.964 102.251 560.964 102.251" fill="#1e1e1c"/><polygon points="566.968 91.729 566.43 91.421 569.123 86.703 569.661 87.011 566.968 91.729 566.968 91.729" fill="#1e1e1c"/><polygon points="568.236 93.112 567.799 92.673 571.719 88.752 572.158 89.19 568.236 93.112 568.236 93.112" fill="#1e1e1c"/><polygon points="558.288 100.065 557.85 99.627 561.772 95.705 562.21 96.144 558.288 100.065 558.288 100.065" fill="#1e1e1c"/><polygon points="561.96 93.045 557.27 90.369 557.577 89.831 562.267 92.507 561.96 93.045 561.96 93.045" fill="#1e1e1c"/><polygon points="572.51 99.065 567.792 96.373 568.1 95.835 572.817 98.527 572.51 99.065 572.51 99.065" fill="#1e1e1c"/><polygon points="570.331 101.563 566.409 97.641 566.847 97.203 570.769 101.124 570.331 101.563 570.331 101.563" fill="#1e1e1c"/><polygon points="563.378 91.615 559.456 87.693 559.894 87.254 563.816 91.176 563.378 91.615 563.378 91.615" fill="#1e1e1c"/><polygon points="552.229 101.653 464.332 101.653 464.332 101.033 552.229 101.033 552.229 101.653 552.229 101.653" fill="#1e1e1c"/><path d="M595.709,101.265H578v-.62h17.712a3.976,3.976,0,0,0,3.976-3.975V92.656a24.743,24.743,0,0,0-23.3-24.7l-30.694-2.175-.064-.037L520.653,51.054a8.46,8.46,0,0,0-4.286-1.167H462.315A6.464,6.464,0,0,0,458.687,51L438.332,64.734a4.538,4.538,0,0,1-2,.741L423.6,66.952a8.629,8.629,0,0,0-7.527,7.294l-.529,3.57a23.793,23.793,0,0,0,1.015,11.126,14.774,14.774,0,0,0,11.449,9.781l11.076,1.927-.106.611-11.076-1.927a15.392,15.392,0,0,1-11.929-10.191,24.423,24.423,0,0,1-1.043-11.418l.529-3.57a9.251,9.251,0,0,1,8.07-7.819l12.726-1.477a3.921,3.921,0,0,0,1.726-.639L458.34,50.482a7.083,7.083,0,0,1,3.975-1.215h54.052a9.084,9.084,0,0,1,4.6,1.252l24.907,14.652,30.547,2.164A25.365,25.365,0,0,1,600.3,92.656V96.67a4.6,4.6,0,0,1-4.6,4.595Z" transform="translate(-0.201 0.388)" fill="#1e1e1c"/><path d="M531.07,69.268l-83.215-1.684a2.37,2.37,0,0,1-1.388-4.256l13.112-9.976a5.765,5.765,0,0,1,3.472-1.171H516.34a5.733,5.733,0,0,1,2.922.8L540.926,65.82a1.5,1.5,0,0,1-.073,2.621,8.314,8.314,0,0,1-1.655.648l-.162-.6a7.738,7.738,0,0,0,1.531-.6.88.88,0,0,0,.042-1.538L518.947,53.516a5.114,5.114,0,0,0-2.607-.715H463.051a5.141,5.141,0,0,0-3.1,1.045l-13.111,9.976a1.75,1.75,0,0,0,1.024,3.142l83.216,1.684-.013.62Z" transform="translate(-0.201 0.388)" fill="#1e1e1c"/><polygon points="493.961 68.602 493.34 68.602 493.34 52.88 493.961 52.88 493.961 68.602 493.961 68.602" fill="#1e1e1c"/><polygon points="437.496 98.195 421.89 97.368 421.922 96.749 437.528 97.576 437.496 98.195 437.496 98.195" fill="#1e1e1c"/><polygon points="551.172 98.92 465.459 98.92 465.459 98.3 551.172 98.3 551.172 98.92 551.172 98.92" fill="#1e1e1c"/><polygon points="599.425 98.92 578.925 98.92 578.925 98.3 599.425 98.3 599.425 98.92 599.425 98.92" fill="#1e1e1c"/><path d="M594.407,82.544h-3.619a7.71,7.71,0,0,1-4.532-1.463l-3.733-2.69a1.9,1.9,0,0,1,1.446-3.417l6.342,1.125,4.48.888-.122.608-4.472-.886-6.337-1.125a1.283,1.283,0,0,0-.974,2.3l3.734,2.69a7.087,7.087,0,0,0,4.168,1.346h3.619a9.959,9.959,0,0,0,2.934-.441l.068-.02.184.592-.07.021a10.571,10.571,0,0,1-3.116.468Z" transform="translate(-0.201 0.388)" fill="#1e1e1c"/><path d="M498.2,71.512a.585.585,0,0,0,0,1.169h8.166a.585.585,0,0,0,0-1.169Zm8.166,1.789H498.2a1.2,1.2,0,1,1,0-2.409h8.166a1.2,1.2,0,0,1,0,2.409Z" transform="translate(-0.201 0.388)" fill="#1e1e1c"/><path d="M452.045,70.618a.584.584,0,1,0,0,1.168h8.165a.584.584,0,1,0,0-1.168Zm8.165,1.788h-8.165a1.2,1.2,0,1,1,0-2.408h8.165a1.2,1.2,0,1,1,0,2.408Z" transform="translate(-0.201 0.388)" fill="#1e1e1c"/><path d="M532.117,63.431a1.5,1.5,0,0,0-1.5,1.5,10.554,10.554,0,0,0,.85,4.162,2.957,2.957,0,0,0,2.724,1.8H537.5a1.312,1.312,0,0,0,1.31-1.311v-1.06a3.4,3.4,0,0,0-1.715-2.952l-3.408-1.942a1.514,1.514,0,0,0-.743-.2Zm5.38,8.081h-3.306a3.575,3.575,0,0,1-3.294-2.177,11.169,11.169,0,0,1-.9-4.4,2.122,2.122,0,0,1,2.12-2.119h.824a2.118,2.118,0,0,1,1.049.278l3.41,1.942a4.026,4.026,0,0,1,2.027,3.49v1.06a1.933,1.933,0,0,1-1.93,1.931Z" transform="translate(-0.201 0.388)" fill="#1e1e1c"/><path d="M415.042,80.385l-.056-.618,3.437-.312a4.41,4.41,0,0,0,2.521-1.079l1.742-1.518a3.987,3.987,0,0,0,1.362-3v-.7a.618.618,0,0,0-.7-.611L416,73.568l-.085-.614,7.342-1.018a1.238,1.238,0,0,1,1.408,1.225v.7a4.6,4.6,0,0,1-1.576,3.467l-1.741,1.519a5.043,5.043,0,0,1-2.873,1.229l-3.437.312Z" transform="translate(-0.201 0.388)" fill="#1e1e1c"/><polygon points="493.961 95.445 493.34 95.445 493.34 71.59 493.961 71.59 493.961 95.445 493.961 95.445" fill="#1e1e1c"/><path d="M230.116,79.935A14.163,14.163,0,1,0,244.28,94.1a14.179,14.179,0,0,0-14.164-14.163Zm0,28.946A14.783,14.783,0,1,1,244.9,94.1a14.8,14.8,0,0,1-14.784,14.783Z" transform="translate(-0.201 0.388)" fill="#1e1e1c"/><path d="M230.116,79.935A14.163,14.163,0,1,0,244.28,94.1a14.179,14.179,0,0,0-14.164-14.163Zm0,28.946A14.783,14.783,0,1,1,244.9,94.1a14.8,14.8,0,0,1-14.784,14.783Z" transform="translate(-0.201 0.388)" fill="#1e1e1c"/><path d="M230.116,83.842A10.256,10.256,0,1,0,240.372,94.1a10.268,10.268,0,0,0-10.256-10.256Zm0,21.132A10.876,10.876,0,1,1,240.992,94.1a10.889,10.889,0,0,1-10.876,10.876Z" transform="translate(-0.201 0.388)" fill="#1e1e1c"/><path d="M230.116,85.636a8.462,8.462,0,1,0,8.461,8.462,8.472,8.472,0,0,0-8.461-8.462Zm0,17.544A9.082,9.082,0,1,1,239.2,94.1a9.093,9.093,0,0,1-9.081,9.082Z" transform="translate(-0.201 0.388)" fill="#1e1e1c"/><path d="M230.116,91.034A3.064,3.064,0,1,0,233.18,94.1a3.068,3.068,0,0,0-3.064-3.064Zm0,6.748A3.684,3.684,0,1,1,233.8,94.1a3.689,3.689,0,0,1-3.683,3.684Z" transform="translate(-0.201 0.388)" fill="#1e1e1c"/><path d="M230.116,92.639a1.459,1.459,0,1,0,1.459,1.459,1.461,1.461,0,0,0-1.459-1.459Zm0,3.538A2.079,2.079,0,1,1,232.2,94.1a2.083,2.083,0,0,1-2.079,2.079Z" transform="translate(-0.201 0.388)" fill="#1e1e1c"/><polygon points="227.89 103.029 227.291 102.865 228.715 97.656 229.314 97.82 227.89 103.029 227.89 103.029" fill="#1e1e1c"/><polygon points="231.084 91.342 230.487 91.178 231.919 85.939 232.518 86.103 231.084 91.342 231.084 91.342" fill="#1e1e1c"/><polygon points="229.232 91.26 228.612 91.26 228.612 85.715 229.232 85.715 229.232 91.26 229.232 91.26" fill="#1e1e1c"/><polygon points="231.349 103.212 230.729 103.212 230.729 97.666 231.349 97.666 231.349 103.212 231.349 103.212" fill="#1e1e1c"/><polygon points="238.306 97.076 233.098 95.652 233.262 95.053 238.47 96.477 238.306 97.076 238.306 97.076" fill="#1e1e1c"/><polygon points="226.62 93.882 221.381 92.448 221.545 91.849 226.783 93.283 226.62 93.882 226.62 93.882" fill="#1e1e1c"/><polygon points="226.702 95.755 221.155 95.755 221.155 95.135 226.702 95.135 226.702 95.755 226.702 95.755" fill="#1e1e1c"/><polygon points="238.653 93.638 233.107 93.638 233.107 93.018 238.653 93.018 238.653 93.638 238.653 93.638" fill="#1e1e1c"/><polygon points="233.998 102.251 231.322 97.561 231.86 97.255 234.536 101.945 233.998 102.251 233.998 102.251" fill="#1e1e1c"/><polygon points="227.994 91.73 225.301 87.011 225.841 86.703 228.532 91.422 227.994 91.73 227.994 91.73" fill="#1e1e1c"/><polygon points="226.726 93.112 222.804 89.19 223.243 88.752 227.165 92.674 226.726 93.112 226.726 93.112" fill="#1e1e1c"/><polygon points="236.674 100.066 232.753 96.144 233.19 95.706 237.112 99.626 236.674 100.066 236.674 100.066" fill="#1e1e1c"/><polygon points="233.003 93.045 232.695 92.507 237.385 89.831 237.693 90.369 233.003 93.045 233.003 93.045" fill="#1e1e1c"/><polygon points="222.452 99.066 222.145 98.528 226.864 95.835 227.17 96.374 222.452 99.066 222.452 99.066" fill="#1e1e1c"/><polygon points="224.632 101.563 224.194 101.125 228.115 97.203 228.553 97.641 224.632 101.563 224.632 101.563" fill="#1e1e1c"/><polygon points="231.586 91.615 231.146 91.177 235.068 87.255 235.508 87.693 231.586 91.615 231.586 91.615" fill="#1e1e1c"/><path d="M116.65,79.935A14.163,14.163,0,1,0,130.813,94.1,14.18,14.18,0,0,0,116.65,79.935Zm0,28.946A14.783,14.783,0,1,1,131.435,94.1a14.8,14.8,0,0,1-14.785,14.783Z" transform="translate(-0.201 0.388)" fill="#1e1e1c"/><path d="M116.65,79.935A14.163,14.163,0,1,0,130.813,94.1,14.18,14.18,0,0,0,116.65,79.935Zm0,28.946A14.783,14.783,0,1,1,131.435,94.1a14.8,14.8,0,0,1-14.785,14.783Z" transform="translate(-0.201 0.388)" fill="#1e1e1c"/><path d="M116.65,83.842A10.256,10.256,0,1,0,126.907,94.1,10.268,10.268,0,0,0,116.65,83.842Zm0,21.132A10.876,10.876,0,1,1,127.526,94.1a10.89,10.89,0,0,1-10.876,10.876Z" transform="translate(-0.201 0.388)" fill="#1e1e1c"/><path d="M116.65,85.636a8.462,8.462,0,1,0,8.462,8.462,8.472,8.472,0,0,0-8.462-8.462Zm0,17.544a9.082,9.082,0,1,1,9.082-9.082,9.092,9.092,0,0,1-9.082,9.082Z" transform="translate(-0.201 0.388)" fill="#1e1e1c"/><path d="M116.65,91.034a3.064,3.064,0,1,0,3.064,3.064,3.067,3.067,0,0,0-3.064-3.064Zm0,6.748a3.684,3.684,0,1,1,3.684-3.684,3.689,3.689,0,0,1-3.684,3.684Z" transform="translate(-0.201 0.388)" fill="#1e1e1c"/><path d="M116.65,92.639a1.459,1.459,0,1,0,1.46,1.459,1.461,1.461,0,0,0-1.46-1.459Zm0,3.538a2.079,2.079,0,1,1,2.079-2.079,2.082,2.082,0,0,1-2.079,2.079Z" transform="translate(-0.201 0.388)" fill="#1e1e1c"/><polygon points="114.424 103.029 113.826 102.865 115.25 97.656 115.849 97.82 114.424 103.029 114.424 103.029" fill="#1e1e1c"/><polygon points="117.619 91.342 117.022 91.178 118.454 85.939 119.052 86.103 117.619 91.342 117.619 91.342" fill="#1e1e1c"/><polygon points="115.767 91.26 115.147 91.26 115.147 85.715 115.767 85.715 115.767 91.26 115.767 91.26" fill="#1e1e1c"/><polygon points="117.884 103.212 117.264 103.212 117.264 97.666 117.884 97.666 117.884 103.212 117.884 103.212" fill="#1e1e1c"/><polygon points="124.841 97.076 119.633 95.652 119.797 95.053 125.005 96.477 124.841 97.076 124.841 97.076" fill="#1e1e1c"/><polygon points="113.155 93.882 107.914 92.448 108.078 91.849 113.318 93.283 113.155 93.882 113.155 93.882" fill="#1e1e1c"/><polygon points="113.236 95.755 107.69 95.755 107.69 95.135 113.236 95.135 113.236 95.755 113.236 95.755" fill="#1e1e1c"/><polygon points="125.188 93.638 119.642 93.638 119.642 93.018 125.188 93.018 125.188 93.638 125.188 93.638" fill="#1e1e1c"/><polygon points="120.533 102.251 117.857 97.561 118.395 97.255 121.071 101.945 120.533 102.251 120.533 102.251" fill="#1e1e1c"/><polygon points="114.529 91.73 111.836 87.011 112.376 86.703 115.067 91.422 114.529 91.73 114.529 91.73" fill="#1e1e1c"/><polygon points="113.261 93.112 109.339 89.19 109.778 88.752 113.699 92.674 113.261 93.112 113.261 93.112" fill="#1e1e1c"/><polygon points="123.209 100.066 119.287 96.144 119.725 95.706 123.647 99.626 123.209 100.066 123.209 100.066" fill="#1e1e1c"/><polygon points="119.537 93.045 119.23 92.507 123.92 89.831 124.228 90.369 119.537 93.045 119.537 93.045" fill="#1e1e1c"/><polygon points="108.987 99.066 108.68 98.528 113.397 95.835 113.705 96.374 108.987 99.066 108.987 99.066" fill="#1e1e1c"/><polygon points="111.166 101.563 110.728 101.125 114.65 97.203 115.088 97.641 111.166 101.563 111.166 101.563" fill="#1e1e1c"/><polygon points="118.12 91.615 117.681 91.177 121.603 87.255 122.041 87.693 118.12 91.615 118.12 91.615" fill="#1e1e1c"/><polygon points="217.167 101.654 129.268 101.654 129.268 101.034 217.167 101.034 217.167 101.654 217.167 101.654" fill="#1e1e1c"/><path d="M103.9,101.266H86.191a4.6,4.6,0,0,1-4.6-4.6V92.655a25.361,25.361,0,0,1,23.888-25.32l30.543-2.164,24.907-14.652a9.083,9.083,0,0,1,4.6-1.252h54.053a7.077,7.077,0,0,1,3.975,1.216L243.915,64.22a3.9,3.9,0,0,0,1.726.638l12.726,1.479a9.251,9.251,0,0,1,8.07,7.818l.528,3.571a24.407,24.407,0,0,1-1.042,11.417,15.393,15.393,0,0,1-11.929,10.191l-11.076,1.927-.106-.61,11.076-1.928a14.766,14.766,0,0,0,11.448-9.78,23.782,23.782,0,0,0,1.016-11.126l-.529-3.571a8.627,8.627,0,0,0-7.527-7.293L245.57,65.475a4.525,4.525,0,0,1-2-.741L223.213,51a6.465,6.465,0,0,0-3.628-1.11H165.532a8.47,8.47,0,0,0-4.285,1.167L136.214,65.78l-.073,0-30.618,2.17a24.744,24.744,0,0,0-23.309,24.7V96.67a3.977,3.977,0,0,0,3.977,3.976H103.9v.62Z" transform="translate(-0.201 0.388)" fill="#1e1e1c"/><path d="M150.83,69.268l-.014-.62,83.217-1.685a1.729,1.729,0,0,0,.821-.222,1.749,1.749,0,0,0,.2-2.919l-13.111-9.976a5.14,5.14,0,0,0-3.1-1.044H165.561a5.127,5.127,0,0,0-2.608.714L141.291,66.353a.88.88,0,0,0,.042,1.539,7.735,7.735,0,0,0,1.531.6l-.162.6a8.372,8.372,0,0,1-1.655-.647,1.5,1.5,0,0,1-.073-2.623l21.664-12.836a5.734,5.734,0,0,1,2.923-.8h53.288a5.759,5.759,0,0,1,3.471,1.17l13.113,9.976a2.371,2.371,0,0,1-.276,3.954,2.4,2.4,0,0,1-1.112.3L150.83,69.268Z" transform="translate(-0.201 0.388)" fill="#1e1e1c"/><polygon points="188.158 68.602 187.538 68.602 187.538 52.88 188.158 52.88 188.158 68.602 188.158 68.602" fill="#1e1e1c"/><polygon points="244.001 98.194 243.97 97.576 259.575 96.75 259.607 97.369 244.001 98.194 244.001 98.194" fill="#1e1e1c"/><polygon points="216.038 98.92 130.325 98.92 130.325 98.301 216.038 98.301 216.038 98.92 216.038 98.92" fill="#1e1e1c"/><polygon points="102.573 98.92 82.072 98.92 82.072 98.301 102.573 98.301 102.573 98.92 102.573 98.92" fill="#1e1e1c"/><path d="M91.111,82.545H87.493a10.582,10.582,0,0,1-3.116-.469l-.07-.021.184-.592.068.021a9.987,9.987,0,0,0,2.934.441h3.618a7.088,7.088,0,0,0,4.169-1.347l3.734-2.689a1.284,1.284,0,0,0-.974-2.3L91.7,76.71,87.23,77.6l-.121-.609,4.474-.885,6.348-1.127a1.9,1.9,0,0,1,1.445,3.418l-3.732,2.689a7.712,7.712,0,0,1-4.533,1.464Z" transform="translate(-0.201 0.388)" fill="#1e1e1c"/><path d="M175.536,71.513a.584.584,0,1,0,0,1.168H183.7a.584.584,0,1,0,0-1.168ZM183.7,73.3h-8.166a1.2,1.2,0,1,1,0-2.408H183.7a1.2,1.2,0,1,1,0,2.408Z" transform="translate(-0.201 0.388)" fill="#1e1e1c"/><path d="M221.69,70.618a.585.585,0,1,0,0,1.169h8.165a.585.585,0,1,0,0-1.169Zm8.165,1.789H221.69a1.2,1.2,0,1,1,0-2.408h8.165a1.2,1.2,0,1,1,0,2.408Z" transform="translate(-0.201 0.388)" fill="#1e1e1c"/><path d="M144.808,65.569a3.405,3.405,0,0,0-1.716,2.952V69.58a1.313,1.313,0,0,0,1.311,1.313h3.307a2.956,2.956,0,0,0,2.723-1.8,10.549,10.549,0,0,0,.85-4.161,1.5,1.5,0,0,0-1.5-1.5h-.824a1.5,1.5,0,0,0-.743.2l-3.408,1.941Zm2.9,5.944H144.4a1.934,1.934,0,0,1-1.93-1.933V68.521a4.026,4.026,0,0,1,2.027-3.49l3.41-1.943a2.128,2.128,0,0,1,1.049-.277h.824a2.122,2.122,0,0,1,2.12,2.12,11.176,11.176,0,0,1-.9,4.405,3.577,3.577,0,0,1-3.293,2.177Z" transform="translate(-0.201 0.388)" fill="#1e1e1c"/><path d="M266.858,80.385l-3.437-.312a5.037,5.037,0,0,1-2.873-1.229l-1.741-1.518a4.606,4.606,0,0,1-1.575-3.468v-.7a1.237,1.237,0,0,1,1.406-1.226l7.342,1.02-.085.614-7.342-1.018a.608.608,0,0,0-.489.145.614.614,0,0,0-.212.465v.7a3.981,3.981,0,0,0,1.362,3l1.741,1.52a4.418,4.418,0,0,0,2.522,1.078l3.437.312-.056.618Z" transform="translate(-0.201 0.388)" fill="#1e1e1c"/><polygon points="188.158 95.446 187.538 95.446 187.538 71.59 188.158 71.59 188.158 95.446 188.158 95.446" fill="#1e1e1c"/><path d="M683.405,106.783H641.446a9.049,9.049,0,0,1-6.433-2.708,8.948,8.948,0,0,1-2.559-6.285V80.039a9.333,9.333,0,0,1,1.558-5.173l7.243-10.945L653.81,43.782a3.8,3.8,0,0,1,3.243-1.8h26.352V42.6H657.053a3.186,3.186,0,0,0-2.717,1.508L641.777,64.256l-7.249,10.952a8.73,8.73,0,0,0-1.454,4.831V97.79a8.329,8.329,0,0,0,2.383,5.851,8.418,8.418,0,0,0,5.989,2.522h41.959v.62Z" transform="translate(-0.201 0.388)" fill="#1e1e1c"/><path d="M683.405,64.2H647.988a2.472,2.472,0,0,1-2.083-3.8l9.431-14.777a3.024,3.024,0,0,1,2.56-1.4h25.509v.62H657.9a2.407,2.407,0,0,0-2.037,1.117L646.427,60.73a1.853,1.853,0,0,0,1.561,2.849h35.417v.62Z" transform="translate(-0.201 0.388)" fill="#1e1e1c"/><path d="M640.154,74.614a1.134,1.134,0,0,0-1.117.923,3.708,3.708,0,0,0,1.073,3.381l2.883,2.777a3.838,3.838,0,0,0,2.678,1.081h13.3a.777.777,0,0,0,.722-1.068l-.272-.667a5.334,5.334,0,0,0-4.558-3.322l-6.927-.506a9.355,9.355,0,0,1-2.873-.677L640.586,74.7a1.127,1.127,0,0,0-.432-.085ZM658.967,83.4h-13.3a4.458,4.458,0,0,1-3.108-1.254l-2.884-2.778a4.329,4.329,0,0,1-1.251-3.943,1.757,1.757,0,0,1,2.394-1.3l4.472,1.835a8.757,8.757,0,0,0,2.684.634l6.926.506a5.96,5.96,0,0,1,5.089,3.706l.27.667a1.4,1.4,0,0,1-1.3,1.923Z" transform="translate(-0.201 0.388)" fill="#1e1e1c"/><path d="M645.433,116.166H635.171a1.805,1.805,0,0,1-1.8-1.8V101.668h.62v12.695a1.184,1.184,0,0,0,1.183,1.182h10.262a1.185,1.185,0,0,0,1.184-1.182v-7.889h.62v7.889a1.8,1.8,0,0,1-1.8,1.8Z" transform="translate(-0.201 0.388)" fill="#1e1e1c"/><polygon points="635.344 116.244 634.724 116.244 634.724 104.246 635.344 104.246 635.344 116.244 635.344 116.244" fill="#1e1e1c"/><polygon points="637.393 116.244 636.773 116.244 636.773 105.8 637.393 105.8 637.393 116.244 637.393 116.244" fill="#1e1e1c"/><polygon points="639.442 116.244 638.822 116.244 638.822 106.6 639.442 106.6 639.442 116.244 639.442 116.244" fill="#1e1e1c"/><polygon points="641.49 116.244 640.871 116.244 640.871 106.862 641.49 106.862 641.49 116.244 641.49 116.244" fill="#1e1e1c"/><polygon points="643.539 116.244 642.919 116.244 642.919 106.862 643.539 106.862 643.539 116.244 643.539 116.244" fill="#1e1e1c"/><polygon points="645.588 116.244 644.968 116.244 644.968 106.862 645.588 106.862 645.588 116.244 645.588 116.244" fill="#1e1e1c"/><path d="M642.207,62.785,639.516,59.4a1.4,1.4,0,0,1,1.1-2.271h.367a1.4,1.4,0,0,1,1.1.532l2,2.527-.486.385-2-2.527a.776.776,0,0,0-.614-.3h-.367A.779.779,0,0,0,640,59.01l2.691,3.39-.485.385Z" transform="translate(-0.201 0.388)" fill="#1e1e1c"/><path d="M639.357,62.373a3.86,3.86,0,0,1-1.766-.425l-2.834-1.457a2.474,2.474,0,0,1-1.248-2.828l.525-1.947a2.464,2.464,0,0,1,2.375-1.819h4.181a3.327,3.327,0,0,1,2.917,1.726,3.146,3.146,0,0,1,.226,2.5l-.435,1.3-.588-.2.435-1.3a2.519,2.519,0,0,0-.182-2.008,2.706,2.706,0,0,0-2.373-1.4h-4.181a1.844,1.844,0,0,0-1.776,1.359l-.526,1.949a1.851,1.851,0,0,0,.935,2.114l2.832,1.458a3.257,3.257,0,0,0,3.193-.128l.252-.156.327.526-.253.158a3.868,3.868,0,0,1-2.036.576Z" transform="translate(-0.201 0.388)" fill="#1e1e1c"/><path d="M725.361,106.783H683.405v-.62h41.956a8.415,8.415,0,0,0,5.989-2.522,8.325,8.325,0,0,0,2.384-5.851V80.039a8.723,8.723,0,0,0-1.455-4.831l-7.244-10.944L712.471,44.109a3.184,3.184,0,0,0-2.717-1.508H683.405v-.619h26.349a3.8,3.8,0,0,1,3.243,1.8l12.56,20.147L732.8,74.866a9.333,9.333,0,0,1,1.558,5.173V97.79a8.949,8.949,0,0,1-2.56,6.285,9.046,9.046,0,0,1-6.433,2.708Z" transform="translate(-0.201 0.388)" fill="#1e1e1c"/><path d="M718.819,64.2H683.405v-.62h35.414a1.852,1.852,0,0,0,1.561-2.849l-9.432-14.778a2.406,2.406,0,0,0-2.036-1.117H683.405v-.62h25.507a3.023,3.023,0,0,1,2.559,1.4L720.9,60.4a2.473,2.473,0,0,1-2.084,3.8Z" transform="translate(-0.201 0.388)" fill="#1e1e1c"/><path d="M708.921,78.942a5.366,5.366,0,0,0-1.532,2.1l-.27.667a.777.777,0,0,0,.721,1.068h13.295a3.836,3.836,0,0,0,2.679-1.081l2.884-2.777a3.71,3.71,0,0,0,1.073-3.381,1.136,1.136,0,0,0-1.549-.838l-4.472,1.837a9.38,9.38,0,0,1-2.875.677l-6.926.506a5.311,5.311,0,0,0-3.028,1.223ZM721.135,83.4H707.84a1.4,1.4,0,0,1-1.3-1.923l.269-.667A5.964,5.964,0,0,1,711.9,77.1l6.927-.506a8.757,8.757,0,0,0,2.684-.634l4.472-1.835a1.758,1.758,0,0,1,2.394,1.3,4.329,4.329,0,0,1-1.252,3.943l-2.884,2.778a4.455,4.455,0,0,1-3.109,1.254Z" transform="translate(-0.201 0.388)" fill="#1e1e1c"/><path d="M731.637,116.166H721.373a1.8,1.8,0,0,1-1.8-1.8v-7.889h.62v7.889a1.184,1.184,0,0,0,1.182,1.182h10.264a1.184,1.184,0,0,0,1.183-1.182V101.668h.62v12.695a1.805,1.805,0,0,1-1.8,1.8Z" transform="translate(-0.201 0.388)" fill="#1e1e1c"/><polygon points="731.681 116.244 731.061 116.244 731.061 104.246 731.681 104.246 731.681 116.244 731.681 116.244" fill="#1e1e1c"/><polygon points="729.632 116.244 729.012 116.244 729.012 105.8 729.632 105.8 729.632 116.244 729.632 116.244" fill="#1e1e1c"/><polygon points="727.583 116.244 726.963 116.244 726.963 106.6 727.583 106.6 727.583 116.244 727.583 116.244" fill="#1e1e1c"/><polygon points="725.534 116.244 724.914 116.244 724.914 106.862 725.534 106.862 725.534 116.244 725.534 116.244" fill="#1e1e1c"/><polygon points="723.485 116.244 722.866 116.244 722.866 106.862 723.485 106.862 723.485 116.244 723.485 116.244" fill="#1e1e1c"/><polygon points="721.437 116.244 720.817 116.244 720.817 106.862 721.437 106.862 721.437 116.244 721.437 116.244" fill="#1e1e1c"/><path d="M724.6,62.785l-.485-.385,2.691-3.39a.779.779,0,0,0-.611-1.265h-.366a.776.776,0,0,0-.614.3l-2,2.527-.486-.385,2-2.527a1.4,1.4,0,0,1,1.1-.532h.366a1.4,1.4,0,0,1,1.1,2.271L724.6,62.785Z" transform="translate(-0.201 0.388)" fill="#1e1e1c"/><path d="M727.451,62.373a3.874,3.874,0,0,1-2.037-.576l-.253-.158.328-.526.253.156a3.253,3.253,0,0,0,3.191.128l2.832-1.458a1.848,1.848,0,0,0,.935-2.114l-.526-1.949a1.843,1.843,0,0,0-1.776-1.359h-4.181a2.706,2.706,0,0,0-2.373,1.4,2.515,2.515,0,0,0-.181,2.008l.434,1.3-.588.2-.434-1.3a3.15,3.15,0,0,1,.225-2.5,3.327,3.327,0,0,1,2.917-1.726H730.4a2.462,2.462,0,0,1,2.375,1.819l.526,1.947a2.477,2.477,0,0,1-1.249,2.828l-2.834,1.457a3.856,3.856,0,0,1-1.765.425Z" transform="translate(-0.201 0.388)" fill="#1e1e1c"/><polygon points="706.661 83.175 659.743 83.175 659.743 82.555 706.661 82.555 706.661 83.175 706.661 83.175" fill="#1e1e1c"/><path d="M667.017,91.523a.931.931,0,0,0-.929.93v10.166a.931.931,0,0,0,.929.93h32.774a.93.93,0,0,0,.928-.93V92.453a.93.93,0,0,0-.928-.93Zm32.774,12.646H667.017a1.552,1.552,0,0,1-1.549-1.55V92.453a1.552,1.552,0,0,1,1.549-1.55h32.774a1.552,1.552,0,0,1,1.548,1.55v10.166a1.552,1.552,0,0,1-1.548,1.55Z" transform="translate(-0.201 0.388)" fill="#1e1e1c"/><path d="M672.545,86.014a.583.583,0,0,0-.582.582v.358a.583.583,0,0,0,.582.582h21.717a.582.582,0,0,0,.582-.582V86.6a.582.582,0,0,0-.582-.582Zm21.717,2.142H672.545a1.2,1.2,0,0,1-1.2-1.2V86.6a1.2,1.2,0,0,1,1.2-1.2h21.717a1.2,1.2,0,0,1,1.2,1.2v.358a1.2,1.2,0,0,1-1.2,1.2Z" transform="translate(-0.201 0.388)" fill="#1e1e1c"/><path d="M665.777,101.437H643.309a13.555,13.555,0,0,1-9.652-4l-1.085-1.085.438-.438L634.1,97a12.946,12.946,0,0,0,9.214,3.818h22.468v.62Z" transform="translate(-0.201 0.388)" fill="#1e1e1c"/><path d="M723.425,101.437H700.956v-.62h22.469A12.946,12.946,0,0,0,732.638,97l1.085-1.085.44.438-1.085,1.085a13.56,13.56,0,0,1-9.653,4Z" transform="translate(-0.201 0.388)" fill="#1e1e1c"/><path d="M323.713,91.988a.93.93,0,0,0-.93.929v10.167a.93.93,0,0,0,.93.929h32.772a.93.93,0,0,0,.929-.929V92.917a.93.93,0,0,0-.929-.929Zm32.772,12.644H323.713a1.551,1.551,0,0,1-1.55-1.548V92.917a1.55,1.55,0,0,1,1.55-1.549h32.772a1.55,1.55,0,0,1,1.549,1.549v10.167a1.55,1.55,0,0,1-1.549,1.548Z" transform="translate(-0.201 0.388)" fill="#1e1e1c"/><path d="M340.1,106.784H298.141a9.042,9.042,0,0,1-6.431-2.708,8.94,8.94,0,0,1-2.562-6.284V80.041a9.345,9.345,0,0,1,1.558-5.176l7.236-10.929,9.6-18.377a6.641,6.641,0,0,1,5.9-3.578H340.1V42.6H313.445a6.022,6.022,0,0,0-5.354,3.243l-9.615,18.406-.008.013-7.245,10.943a8.727,8.727,0,0,0-1.455,4.833V97.792a8.329,8.329,0,0,0,2.384,5.851,8.422,8.422,0,0,0,5.989,2.521H340.1v.62Z" transform="translate(-0.201 0.388)" fill="#1e1e1c"/><path d="M340.1,64.2H304.742a2.613,2.613,0,0,1-2.326-3.808l6.943-13.534a4.842,4.842,0,0,1,4.324-2.641H340.1v.619H313.683a4.223,4.223,0,0,0-3.772,2.3l-6.944,13.534a2,2,0,0,0,1.775,2.905H340.1v.62Z" transform="translate(-0.201 0.388)" fill="#1e1e1c"/><path d="M302.129,116.166H291.866a1.805,1.805,0,0,1-1.8-1.8V101.668h.62v12.695a1.185,1.185,0,0,0,1.184,1.183h10.263a1.183,1.183,0,0,0,1.182-1.183v-7.889h.622v7.889a1.806,1.806,0,0,1-1.8,1.8Z" transform="translate(-0.201 0.388)" fill="#1e1e1c"/><polygon points="292.04 116.245 291.419 116.245 291.419 104.248 292.04 104.248 292.04 116.245 292.04 116.245" fill="#1e1e1c"/><polygon points="294.087 116.245 293.468 116.245 293.468 105.8 294.087 105.8 294.087 116.245 294.087 116.245" fill="#1e1e1c"/><polygon points="296.136 116.245 295.516 116.245 295.516 106.601 296.136 106.601 296.136 116.245 296.136 116.245" fill="#1e1e1c"/><polygon points="298.185 116.245 297.565 116.245 297.565 106.862 298.185 106.862 298.185 116.245 298.185 116.245" fill="#1e1e1c"/><polygon points="300.234 116.245 299.614 116.245 299.614 106.862 300.234 106.862 300.234 116.245 300.234 116.245" fill="#1e1e1c"/><polygon points="302.283 116.245 301.663 116.245 301.663 106.862 302.283 106.862 302.283 116.245 302.283 116.245" fill="#1e1e1c"/><path d="M293.1,54.518a1.841,1.841,0,0,0-1.775,1.36l-.526,1.948a1.848,1.848,0,0,0,.934,2.114l2.834,1.458a3.261,3.261,0,0,0,3.191-.127l.2-.126,1.456-1.959.419-1.257a2.522,2.522,0,0,0-.181-2.007,2.708,2.708,0,0,0-2.373-1.4Zm2.947,7.856a3.873,3.873,0,0,1-1.765-.424l-2.833-1.458a2.472,2.472,0,0,1-1.248-2.828l.524-1.947A2.464,2.464,0,0,1,293.1,53.9h4.182a3.327,3.327,0,0,1,2.916,1.725,3.144,3.144,0,0,1,.226,2.5l-.451,1.349-1.585,2.134-.3.188a3.87,3.87,0,0,1-2.037.577Z" transform="translate(-0.201 0.388)" fill="#1e1e1c"/><path d="M322.473,103.3H300a13.557,13.557,0,0,1-9.651-4l-1.085-1.085.438-.438,1.085,1.085A12.946,12.946,0,0,0,300,102.682h22.47v.62Z" transform="translate(-0.201 0.388)" fill="#1e1e1c"/><polygon points="298.75 63.12 297.744 61.97 298.209 61.561 299.217 62.711 298.75 63.12 298.75 63.12" fill="#1e1e1c"/><polygon points="299.973 60.557 299.291 59.95 299.703 59.488 300.385 60.094 299.973 60.557 299.973 60.557" fill="#1e1e1c"/><path d="M297.166,70.018a1.839,1.839,0,0,0-1.467.73l-.528.7a1.832,1.832,0,0,0-.153,1.962l.441.826a6.2,6.2,0,0,0,5.034,3.282l16.263,1.223a.957.957,0,0,0,1.029-.954v-.884a.951.951,0,0,0-.679-.915L297.7,70.1a1.809,1.809,0,0,0-.529-.079Zm19.661,9.35-.118,0-16.263-1.223a6.822,6.822,0,0,1-5.535-3.61l-.44-.824a2.457,2.457,0,0,1,.2-2.628l.529-.7a2.461,2.461,0,0,1,2.672-.871l19.41,5.895a1.568,1.568,0,0,1,1.119,1.509v.884a1.576,1.576,0,0,1-1.578,1.576Z" transform="translate(-0.201 0.388)" fill="#1e1e1c"/><polygon points="369.921 107.173 339.898 107.173 339.898 106.553 369.921 106.553 369.921 107.173 369.921 107.173" fill="#1e1e1c"/><path d="M382.056,106.784h-5.481v-.62h5.481a8.422,8.422,0,0,0,5.989-2.521,8.323,8.323,0,0,0,2.383-5.851V80.041a8.734,8.734,0,0,0-1.454-4.833l-7.253-10.956-.008-.015-9.607-18.391a6.022,6.022,0,0,0-5.354-3.243H340.1v-.622h26.653a6.643,6.643,0,0,1,5.9,3.577l9.6,18.378,7.236,10.929a9.36,9.36,0,0,1,1.556,5.176V97.792a8.946,8.946,0,0,1-2.559,6.284,9.052,9.052,0,0,1-6.433,2.708Z" transform="translate(-0.201 0.388)" fill="#1e1e1c"/><path d="M375.456,64.2H340.1v-.62h35.357a1.994,1.994,0,0,0,1.773-2.905l-6.943-13.534a4.224,4.224,0,0,0-3.772-2.3H340.1v-.619h26.415a4.837,4.837,0,0,1,4.323,2.641l6.944,13.534a2.614,2.614,0,0,1-2.325,3.808Z" transform="translate(-0.201 0.388)" fill="#1e1e1c"/><path d="M388.331,116.166H378.069a1.806,1.806,0,0,1-1.8-1.8v-7.889h.62v7.889a1.184,1.184,0,0,0,1.184,1.183h10.262a1.184,1.184,0,0,0,1.184-1.183V101.668h.619v12.695a1.805,1.805,0,0,1-1.8,1.8Z" transform="translate(-0.201 0.388)" fill="#1e1e1c"/><polygon points="388.375 116.245 387.755 116.245 387.755 104.248 388.375 104.248 388.375 116.245 388.375 116.245" fill="#1e1e1c"/><polygon points="386.326 116.245 385.707 116.245 385.707 105.8 386.326 105.8 386.326 116.245 386.326 116.245" fill="#1e1e1c"/><polygon points="384.278 116.245 383.658 116.245 383.658 106.601 384.278 106.601 384.278 116.245 384.278 116.245" fill="#1e1e1c"/><polygon points="382.229 116.245 381.609 116.245 381.609 106.862 382.229 106.862 382.229 116.245 382.229 116.245" fill="#1e1e1c"/><polygon points="380.181 116.245 379.56 116.245 379.56 106.862 380.181 106.862 380.181 116.245 380.181 116.245" fill="#1e1e1c"/><polygon points="378.133 116.245 377.511 116.245 377.511 106.862 378.133 106.862 378.133 116.245 378.133 116.245" fill="#1e1e1c"/><path d="M382.233,61.145l.2.126a3.265,3.265,0,0,0,3.192.127l2.833-1.458a1.848,1.848,0,0,0,.934-2.114l-.526-1.948a1.843,1.843,0,0,0-1.776-1.36h-4.181a2.708,2.708,0,0,0-2.373,1.4,2.526,2.526,0,0,0-.182,2.009l.42,1.255,1.456,1.959Zm1.912,1.229a3.869,3.869,0,0,1-2.036-.577l-.3-.188-1.585-2.134-.452-1.349a3.144,3.144,0,0,1,.226-2.5,3.328,3.328,0,0,1,2.917-1.725h4.181a2.465,2.465,0,0,1,2.375,1.819l.525,1.947a2.474,2.474,0,0,1-1.248,2.828l-2.834,1.458a3.871,3.871,0,0,1-1.766.424Z" transform="translate(-0.201 0.388)" fill="#1e1e1c"/><path d="M380.193,103.3H357.725v-.62h22.468a12.944,12.944,0,0,0,9.214-3.816l1.085-1.085.438.438L389.845,99.3a13.561,13.561,0,0,1-9.652,4Z" transform="translate(-0.201 0.388)" fill="#1e1e1c"/><polygon points="381.044 63.12 380.577 62.711 381.585 61.561 382.051 61.97 381.044 63.12 381.044 63.12" fill="#1e1e1c"/><polygon points="379.822 60.557 379.41 60.094 380.091 59.488 380.503 59.95 379.822 60.557 379.822 60.557" fill="#1e1e1c"/><path d="M383.03,70.018a1.824,1.824,0,0,0-.529.079l-19.409,5.9a.951.951,0,0,0-.679.915v.884a.957.957,0,0,0,1.029.954l16.263-1.223a6.2,6.2,0,0,0,5.035-3.282l.439-.826a1.838,1.838,0,0,0-.152-1.962l-.528-.7a1.842,1.842,0,0,0-1.469-.73Zm-19.659,9.35a1.576,1.576,0,0,1-1.578-1.576v-.884a1.567,1.567,0,0,1,1.119-1.509L382.321,69.5a2.462,2.462,0,0,1,2.673.871l.529.7a2.461,2.461,0,0,1,.2,2.628l-.439.824a6.827,6.827,0,0,1-5.536,3.61l-16.263,1.223c-.04,0-.078,0-.117,0Z" transform="translate(-0.201 0.388)" fill="#1e1e1c"/><path d="M373.347,103.711a2.919,2.919,0,1,0,2.918,2.919,2.92,2.92,0,0,0-2.918-2.919Zm0,6.457a3.539,3.539,0,1,1,3.538-3.538,3.543,3.543,0,0,1-3.538,3.538Z" transform="translate(-0.201 0.388)" fill="#1e1e1c"/><path d="M373.347,105.089a1.541,1.541,0,1,0,1.541,1.541,1.542,1.542,0,0,0-1.541-1.541Zm0,3.7a2.161,2.161,0,1,1,2.162-2.161,2.164,2.164,0,0,1-2.162,2.161Z" transform="translate(-0.201 0.388)" fill="#1e1e1c"/><polygon points="361.901 77.607 317.893 77.607 317.893 76.986 361.901 76.986 361.901 77.607 361.901 77.607" fill="#1e1e1c"/><path d="M863.574,49.52V48.9h35.033a18.433,18.433,0,0,1,7.962,1.82,18.246,18.246,0,0,1,7.985,7.468,32.728,32.728,0,0,1,4.254,16.12v4.767h-.62V74.306a32.111,32.111,0,0,0-4.173-15.814,17.711,17.711,0,0,0-15.408-8.972Z" transform="translate(-0.201 0.388)" fill="#1e1e1c"/><path d="M765.5,79.073V68.686a17.41,17.41,0,0,1,4.415-11.594,18.183,18.183,0,0,1,8.462-5.355l2.661-.782a50.816,50.816,0,0,1,14.31-2.057h63.756v.622H795.352a50.2,50.2,0,0,0-14.135,2.03l-2.66.781a17.55,17.55,0,0,0-8.174,5.173,16.788,16.788,0,0,0-4.26,11.182V79.073Z" transform="translate(-0.201 0.388)" fill="#1e1e1c"/><path d="M781.523,79.073V72.6c0-4.231,2.058-9.3,3.284-11.951a3.257,3.257,0,0,1,3.332-1.867L802.5,60.429a1.724,1.724,0,0,1,1.515,1.925,139.691,139.691,0,0,0-.912,16.719h-.62a140.484,140.484,0,0,1,.917-16.795,1.109,1.109,0,0,0-.971-1.234l-14.357-1.651a2.636,2.636,0,0,0-2.7,1.512c-1.205,2.6-3.226,7.577-3.226,11.69v6.478Z" transform="translate(-0.201 0.388)" fill="#1e1e1c"/><path d="M851.049,61.406a1.831,1.831,0,0,1,1.389-1.772l19.071-4.665a2.629,2.629,0,0,1,2.846,1.14,30.727,30.727,0,0,1,3.368,7.727,53.816,53.816,0,0,1,2.013,15.237h-.62a53.22,53.22,0,0,0-1.987-15.06,30.111,30.111,0,0,0-3.3-7.572,2.008,2.008,0,0,0-2.175-.87l-19.07,4.664a1.208,1.208,0,0,0-.9,1.369,122.353,122.353,0,0,1,1.663,12.65v4.819h-.62V74.254a122.33,122.33,0,0,0-1.654-12.546,1.828,1.828,0,0,1-.025-.3Z" transform="translate(-0.201 0.388)" fill="#1e1e1c"/><path d="M789.094,54.651a.852.852,0,0,1,.377-.705l.011-.006a8.14,8.14,0,0,1,4.585-1.406h65.079v.62H794.067a7.537,7.537,0,0,0-4.24,1.3l-.01.008a.237.237,0,0,0,.08.424l14.351,3.461a6.811,6.811,0,0,0,1.6.191H848.6a9.461,9.461,0,0,0,2.726-.4l16.732-4.985h-4.121v-.62h4.994a.492.492,0,0,1,.141.964L851.5,58.735a10.185,10.185,0,0,1-2.9.423H805.851a7.476,7.476,0,0,1-1.749-.208l-14.351-3.461a.845.845,0,0,1-.642-.681.937.937,0,0,1-.015-.157Z" transform="translate(-0.201 0.388)" fill="#1e1e1c"/><path d="M863.644,51.538a7,7,0,0,0-.554-2.735l-.258-.609a2.567,2.567,0,0,0-2.37-1.572h-.441a.6.6,0,0,0-.6.6v5.381a.454.454,0,0,0,.454.453h3.4a.375.375,0,0,0,.374-.373V51.538ZM858.8,52.607V47.226A1.224,1.224,0,0,1,860.021,46h.441a3.186,3.186,0,0,1,2.941,1.95l.258.609a7.6,7.6,0,0,1,.6,2.976v1.149a1,1,0,0,1-.994.993h-3.4a1.075,1.075,0,0,1-1.074-1.073Z" transform="translate(-0.201 0.388)" fill="#1e1e1c"/><path d="M912.466,63.463a.137.137,0,0,0-.013-.056l-2.288-4.858a5.669,5.669,0,0,0-2.436-2.581l-3.281-1.785a4.153,4.153,0,0,0-1.978-.5c-.01,0-.02,0-.026.019a.024.024,0,0,0,.01.031l4.4,3.2a7.443,7.443,0,0,1,1.839,1.923l2.893,4.367a.829.829,0,0,0,.692.373h.061a.129.129,0,0,0,.111-.062.135.135,0,0,0,.021-.07Zm-10.645-9.75a.672.672,0,0,1,.033-.206.639.639,0,0,1,.616-.447,4.765,4.765,0,0,1,2.274.579l3.281,1.783a6.282,6.282,0,0,1,2.7,2.863l2.288,4.857a.752.752,0,0,1-.68,1.073h-.061a1.444,1.444,0,0,1-1.209-.651L908.171,59.2a6.853,6.853,0,0,0-1.687-1.764l-4.395-3.2a.638.638,0,0,1-.268-.518Z" transform="translate(-0.201 0.388)" fill="#1e1e1c"/><path d="M774.987,58.4a.123.123,0,0,0-.014-.052.1.1,0,0,0-.1-.059h-.157a1.838,1.838,0,0,0-1.255.493l-1.876,1.741a5.271,5.271,0,0,0-1.216,1.688l-2.023,4.465h.114a1.291,1.291,0,0,0,1.053-.544l5.45-7.67a.11.11,0,0,0,.021-.062Zm-7.294,8.341a.556.556,0,0,1,.05-.229l2.066-4.557a5.854,5.854,0,0,1,1.358-1.887l1.876-1.741a2.454,2.454,0,0,1,1.676-.659h.157a.731.731,0,0,1,.6,1.153l-5.45,7.67a1.913,1.913,0,0,1-1.559.8h-.215a.553.553,0,0,1-.555-.554Z" transform="translate(-0.201 0.388)" fill="#1e1e1c"/><path d="M863.574,109.248v-.62h35.033a17.823,17.823,0,0,0,7.692-1.757,17.645,17.645,0,0,0,7.716-7.216,32.107,32.107,0,0,0,4.173-15.813V79.073h.62v4.769a32.727,32.727,0,0,1-4.254,16.119,18.252,18.252,0,0,1-7.985,7.468,18.447,18.447,0,0,1-7.962,1.819Z" transform="translate(-0.201 0.388)" fill="#1e1e1c"/><path d="M765.5,89.461V79.073h.619V89.461a16.788,16.788,0,0,0,4.26,11.182,17.559,17.559,0,0,0,8.174,5.174l2.66.78a50.2,50.2,0,0,0,14.135,2.031h63.756v.62H795.352a50.744,50.744,0,0,1-14.31-2.057l-2.661-.78a18.185,18.185,0,0,1-8.462-5.356A17.41,17.41,0,0,1,765.5,89.461Z" transform="translate(-0.201 0.388)" fill="#1e1e1c"/><path d="M781.523,85.553v-6.48h.62v6.48c0,4.111,2.021,9.088,3.226,11.688a2.636,2.636,0,0,0,2.7,1.512L802.425,97.1a1.108,1.108,0,0,0,.971-1.232,140.512,140.512,0,0,1-.917-16.8h.62a139.734,139.734,0,0,0,.912,16.721,1.724,1.724,0,0,1-1.515,1.924L788.139,99.37a3.254,3.254,0,0,1-3.332-1.867c-1.226-2.647-3.284-7.719-3.284-11.95Z" transform="translate(-0.201 0.388)" fill="#1e1e1c"/><path d="M851.049,96.741a1.828,1.828,0,0,1,.025-.3,122.4,122.4,0,0,0,1.654-12.546v-4.82h.62v4.82a122.424,122.424,0,0,1-1.663,12.65,1.207,1.207,0,0,0,.9,1.368l19.07,4.664a2.007,2.007,0,0,0,2.175-.87,30.089,30.089,0,0,0,3.3-7.57,53.234,53.234,0,0,0,1.987-15.062h.62a53.8,53.8,0,0,1-2.013,15.237,30.749,30.749,0,0,1-3.368,7.729,2.628,2.628,0,0,1-2.846,1.139l-19.071-4.664a1.833,1.833,0,0,1-1.389-1.773Z" transform="translate(-0.201 0.388)" fill="#1e1e1c"/><path d="M789.1,103.5a.944.944,0,0,1,.014-.157.845.845,0,0,1,.642-.679L804.1,99.2a7.476,7.476,0,0,1,1.749-.208H848.6a10.15,10.15,0,0,1,2.9.423l17.569,5.235a.493.493,0,0,1-.141.966h-4.994v-.62h4.121l-16.732-4.987a9.529,9.529,0,0,0-2.726-.4H805.851a6.862,6.862,0,0,0-1.6.189L789.9,103.26a.238.238,0,0,0-.077.428,7.536,7.536,0,0,0,4.247,1.306h65.079v.62H794.067a8.146,8.146,0,0,1-4.587-1.408.851.851,0,0,1-.385-.711Z" transform="translate(-0.201 0.388)" fill="#1e1e1c"/><path d="M863.644,105.461a.373.373,0,0,0-.374-.373h-3.4a.454.454,0,0,0-.454.453v5.381a.6.6,0,0,0,.6.6h.441a2.568,2.568,0,0,0,2.37-1.571l.258-.611a7,7,0,0,0,.554-2.734v-1.148Zm-4.846,5.461v-5.381a1.075,1.075,0,0,1,1.074-1.074h3.4a1,1,0,0,1,.994.994v1.148a7.616,7.616,0,0,1-.6,2.977l-.258.609a3.186,3.186,0,0,1-2.941,1.95h-.441a1.225,1.225,0,0,1-1.223-1.223Z" transform="translate(-0.201 0.388)" fill="#1e1e1c"/><path d="M912.466,94.685a.143.143,0,0,0-.021-.072.128.128,0,0,0-.111-.06h-.061a.829.829,0,0,0-.692.371l-2.893,4.369a7.507,7.507,0,0,1-1.839,1.923l-4.4,3.2a.023.023,0,0,0-.01.031c.006.019.016.019.026.019a4.131,4.131,0,0,0,1.978-.5l3.281-1.783a5.674,5.674,0,0,0,2.436-2.581l2.288-4.858a.141.141,0,0,0,.013-.056Zm-10.645,9.75a.637.637,0,0,1,.268-.519l4.395-3.2a6.853,6.853,0,0,0,1.687-1.764l2.893-4.367a1.443,1.443,0,0,1,1.209-.65h.061a.75.75,0,0,1,.68,1.071l-2.288,4.859a6.288,6.288,0,0,1-2.7,2.861l-3.281,1.785a4.765,4.765,0,0,1-2.274.579.638.638,0,0,1-.616-.449.669.669,0,0,1-.033-.2Z" transform="translate(-0.201 0.388)" fill="#1e1e1c"/><path d="M774.987,99.748a.115.115,0,0,0-.021-.064l-5.45-7.668a1.291,1.291,0,0,0-1.053-.544h-.114l2.023,4.464a5.26,5.26,0,0,0,1.216,1.688l1.876,1.742a1.837,1.837,0,0,0,1.255.492h.157a.1.1,0,0,0,.1-.059.115.115,0,0,0,.014-.051Zm-7.294-8.343a.552.552,0,0,1,.555-.553h.215a1.912,1.912,0,0,1,1.559.8l5.45,7.668a.731.731,0,0,1-.6,1.153h-.157a2.449,2.449,0,0,1-1.676-.658l-1.876-1.741a5.876,5.876,0,0,1-1.358-1.887l-2.066-4.556a.569.569,0,0,1-.05-.231Z" transform="translate(-0.201 0.388)" fill="#1e1e1c"/></svg>