<svg id="Capa_1" data-name="Capa 1" xmlns="http://www.w3.org/2000/svg" viewBox="0 0 512 151.08"><title>icono</title><path d="M173.79,180.92H159.72a8.83,8.83,0,0,0-6.3,2.64L96.56,241.2a7.67,7.67,0,0,1-10.91,0L29.14,184.35a8.57,8.57,0,0,0-6.08-2.53H8.56A8.56,8.56,0,0,0,0,190.38V323.9a7,7,0,0,0,7,7H19.63a7,7,0,0,0,7-7V218.43l58.72,59.11a7.68,7.68,0,0,0,10.79.1L156,219.58V323.9a7,7,0,0,0,7,7h12.62a7,7,0,0,0,7-7V189.78A8.86,8.86,0,0,0,173.79,180.92Z" transform="translate(0 -180.92)" fill="#e30613"/><path d="M276.31,184.52a6.24,6.24,0,0,0-11.09.08L196.83,318.91A8.34,8.34,0,0,0,204.26,331H339.62A8.33,8.33,0,0,0,347,318.81ZM302.22,305H240a2.47,2.47,0,0,1-2.2-3.58l31-61.22a2.73,2.73,0,0,1,4.85,0l31.31,60.45A3,3,0,0,1,302.22,305Z" transform="translate(0 -180.92)" fill="#e30613"/><path d="M437.22,181.18c-41.23,0-74.78,33.83-74.78,75.41S396,332,437.22,332,512,298.17,512,256.59,478.45,181.18,437.22,181.18Zm0,125.68c-27.37,0-49.64-22.55-49.64-50.27s22.27-50.27,49.64-50.27,49.64,22.55,49.64,50.27S464.59,306.86,437.22,306.86Z" transform="translate(0 -180.92)" fill="#e30613"/></svg>